<svg width="349" height="349" viewBox="0 0 349 349" fill="none" xmlns="http://www.w3.org/2000/svg">
<rect width="348.262" height="348.262" transform="translate(0.246094)" fill="url(#paint0_radial_102_2993)"/>
<path d="M131.005 169.369C136.958 153.44 140.164 149.809 147.491 146.159C144.743 146.614 142.911 147.524 136.042 152.985C144.285 139.787 152.07 132.05 166.725 125.679C164.435 124.314 164.184 124.608 158.939 125.679C170.534 117.773 198.416 118.146 211.892 120.03C206.479 118.603 194.125 105.467 194.125 105.467C194.125 105.467 216.106 118.852 222.933 116.942C217.843 112.811 218.768 104.09 218.768 105.467C222.276 111.086 229.354 115.821 234.501 118.397L233.127 111.571C234.501 114.756 241.866 121.282 243.297 121.991C247.178 123.916 250.266 131.164 255.109 136.146L261.674 140.787C263.857 142.025 265.829 143.116 266.9 144.482C269.491 147.786 264.975 146.159 264.517 151.165C254.891 145.657 242.773 147.05 239.996 149.344C239.225 147.203 237.498 137.967 213.685 142.973C208.965 143.965 201.778 148.434 198.572 154.351L200.344 147.979C188 155.092 187.638 171.187 187.76 182.578C182.67 174.316 182.824 168.502 184.058 164.677C172.951 182.578 173.748 212.084 193.535 221.706C215.059 232.174 232.157 222.91 238.872 209.419C238.118 215.564 235.405 223.537 233.196 224.412C242.492 221.034 264.529 213.45 269.554 187.118C271.386 198.041 270.928 193.945 270.928 202.137C273.599 199.028 274.343 188.484 274.343 181.202C275.258 183.022 277.258 188.738 277.548 186.663C278.464 183.022 278.991 177.039 279.132 174.83C281.42 138.921 263.27 80.4011 188.248 61.5089C213.435 63.7843 239.996 73.3417 264.975 100.648C264.517 99.2828 264.975 97.0072 265.433 92.9113C267.015 101.103 269.305 107.475 275.05 114.756L276.882 107.475C277.492 111.987 279.361 117.994 283.751 131.595C299.321 179.837 281.919 228.029 251.237 241.731C255.816 241.731 264.975 237.18 269.554 235.36C237.04 270.403 199.946 269.493 186.666 269.493C199.488 275.409 222.933 273.917 242.371 263.36C178.319 310.728 107.441 276.774 98.7396 244.007C97.2586 248.78 103 264.459 104.234 267.672C78.5891 249.013 70.5173 215.625 68.8204 200.479C66.2244 209.874 67.1403 213.97 68.515 223.072C34.168 137.056 110.189 62.8742 185.75 79.258C150.029 84.7192 122.974 113.58 121.846 151.165C121.846 151.165 125.509 146.159 129.173 142.973C125.509 151.62 124.135 160.267 131.005 169.369Z" fill="white"/>
<defs>
<radialGradient id="paint0_radial_102_2993" cx="0" cy="0" r="1" gradientUnits="userSpaceOnUse" gradientTransform="translate(174.131) rotate(90) scale(348.262)">
<stop/>
<stop offset="1" stop-color="#1E1E1E"/>
</radialGradient>
</defs>
</svg>
