<svg width="736" height="349" viewBox="0 0 736 349" fill="none" xmlns="http://www.w3.org/2000/svg">
<rect width="736" height="348" transform="translate(0 0.261597)" fill="url(#paint0_linear_102_3032)"/>
<path d="M243.35 244.757V221.255H247.111V228.635C248.192 224.357 251.153 220.785 255.618 220.785C260.507 220.785 262.998 223.934 262.998 229.481V231.079H259.284V230.139C259.284 226.331 257.31 224.31 253.973 224.31C250.119 224.31 247.111 227.93 247.111 232.583V244.757H243.35Z" fill="black"/>
<path d="M272.843 245.321C268.284 245.321 265.605 243.018 265.605 239.351C265.605 233.476 272.655 232.583 277.543 232.207C280.551 232.019 283.419 231.69 283.419 229.857C283.419 226.143 280.646 223.84 276.979 223.84C273.078 223.84 270.446 226.143 269.882 229.998H266.357C266.921 224.122 271.339 220.785 277.026 220.785C282.855 220.785 286.897 224.357 286.897 230.233V241.419H290.14V244.757H283.466V237.095C282.15 241.748 278.295 245.321 272.843 245.321ZM274.441 242.312C279.564 242.312 283.419 238.317 283.419 233.617L283.466 231.69C282.479 232.583 280.598 232.865 278.107 233.053C272.279 233.523 269.412 234.98 269.412 238.176C269.412 240.949 271.433 242.312 274.441 242.312Z" fill="black"/>
<path d="M308.258 254.627C299.892 254.627 294.815 251.854 294.815 247.248C294.815 244.005 297.495 241.09 303.84 240.244C297.119 239.633 292.794 238.176 292.794 234.322C292.794 232.771 294.063 231.502 295.803 231.502C296.555 231.502 297.213 231.643 297.965 231.972C296.931 230.797 296.367 229.528 296.367 228.212C296.367 224.216 299.986 221.349 306.613 220.879V215.145H310.42V220.879C317.048 221.208 321.184 224.075 321.184 228.494C321.184 233.147 316.343 236.061 308.775 236.061C300.174 236.061 299.516 232.489 295.756 232.489C294.533 232.489 293.734 233.335 293.734 234.322C293.734 238.364 300.691 239.445 308.54 239.633C316.249 239.821 321.842 241.654 321.842 246.919C321.842 251.666 316.578 254.627 308.258 254.627ZM308.775 235.121C314.04 235.121 317.471 232.818 317.471 229.34C317.471 225.814 314.04 223.464 308.775 223.464C303.511 223.464 300.127 225.814 300.127 229.34C300.127 232.818 303.417 235.121 308.775 235.121ZM308.305 251.713C314.181 251.713 317.941 249.504 317.941 246.214C317.941 242.642 314.51 240.62 308.305 240.62C302.477 240.62 298.67 242.877 298.67 246.214C298.67 249.504 302.477 251.713 308.305 251.713Z" fill="black"/>
<path d="M337.367 245.227C330.176 245.227 324.817 239.962 324.817 233.006C324.817 226.049 330.176 220.785 337.367 220.785C344.512 220.785 349.917 226.049 349.917 233.006C349.917 239.962 344.512 245.227 337.367 245.227ZM337.367 241.701C342.302 241.701 346.063 237.941 346.063 233.006C346.063 228.071 342.302 224.263 337.367 224.263C332.385 224.263 328.625 228.071 328.625 233.006C328.625 237.941 332.385 241.701 337.367 241.701Z" fill="black"/>
<path d="M356.589 244.757V221.255H360.349V228.635C361.572 223.934 365.003 220.785 369.421 220.785C375.437 220.785 379.057 225.109 379.057 231.972V244.757H375.296V232.489C375.296 227.46 372.429 224.31 367.823 224.31C363.593 224.31 360.349 227.836 360.349 232.489V244.757H356.589Z" fill="black"/>
<path d="M203 245.469V195.262H228.104V200.282H233.125V205.303H238.145V235.428H233.125V240.449H228.104V245.469H203ZM227.849 240.449V235.428H232.87V205.303H227.849V200.282H208.021V240.449H227.849Z" fill="black"/>
<path d="M397.723 203.201V218.263H408.019V223.284H418.061V228.305H422.826V243.367H418.061V248.388H397.468V243.367H392.702V233.325H397.723V243.367H417.806V228.305H407.764V223.284H397.468V218.263H392.702V203.201H397.468V198.18H418.061V203.201H422.826V213.242H417.806V203.201H397.723Z" fill="black"/>
<path d="M442.796 247.173C436.968 247.173 434.383 244.446 434.383 239.464V226.585H428.648V223.201H433.019C434.101 223.201 434.712 222.59 434.712 221.462V217.561H438.143L438.096 223.201H448.201V226.585H438.096V238.665C438.096 242.143 439.788 243.647 443.501 243.647C444.77 243.647 446.415 243.412 448.201 242.989V246.374C446.65 246.797 444.394 247.173 442.796 247.173Z" fill="black"/>
<path d="M460.446 247.267C455.887 247.267 453.208 244.963 453.208 241.297C453.208 235.422 460.258 234.529 465.147 234.153C468.155 233.965 471.022 233.636 471.022 231.803C471.022 228.089 468.249 225.786 464.583 225.786C460.681 225.786 458.049 228.089 457.485 231.944H453.96C454.524 226.068 458.942 222.731 464.63 222.731C470.458 222.731 474.5 226.303 474.5 232.179V243.365H477.744V246.703H471.069V239.041C469.753 243.694 465.899 247.267 460.446 247.267ZM462.045 244.258C467.168 244.258 471.022 240.263 471.022 235.563L471.069 233.636C470.082 234.529 468.202 234.811 465.711 234.999C459.882 235.469 457.015 236.926 457.015 240.122C457.015 242.895 459.036 244.258 462.045 244.258Z" fill="black"/>
<path d="M484.91 246.703V213.33H488.67V234.482H492.196L501.361 223.201H505.45L495.956 234.67L505.732 246.703H501.267L492.102 235.422H488.67V246.703H484.91Z" fill="black"/>
<path d="M520.971 247.173C513.967 247.173 508.609 242.002 508.609 235.046C508.609 227.901 514.014 222.731 521.018 222.731C527.974 222.731 533.286 227.901 533.286 234.952V235.422H512.275C512.51 240.216 516.224 243.788 521.018 243.788C524.543 243.788 527.457 242.002 528.444 239.464H532.44C531.547 243.553 527.128 247.173 520.971 247.173ZM529.714 234.482C529.525 229.687 525.859 226.115 521.018 226.115C516.224 226.115 512.51 229.687 512.275 234.482H529.714Z" fill="black"/>
<path d="M347.852 121.626C350.524 114.484 351.962 112.856 355.25 111.219C354.017 111.423 353.195 111.831 350.113 114.28C353.812 108.362 357.305 104.893 363.881 102.036C362.853 101.423 362.741 101.555 360.388 102.036C365.591 98.4906 378.102 98.6578 384.149 99.5025C381.72 98.8628 376.176 92.9727 376.176 92.9727C376.176 92.9727 386.04 98.9746 389.104 98.118C386.819 96.2657 387.235 92.3552 387.235 92.9727C388.809 95.4923 391.985 97.6153 394.295 98.7705L393.678 95.7094C394.295 97.1379 397.6 100.064 398.242 100.382C399.983 101.245 401.369 104.495 403.542 106.729L406.488 108.81C407.468 109.365 408.352 109.854 408.833 110.467C409.996 111.949 407.969 111.219 407.764 113.464C403.444 110.994 398.007 111.618 396.761 112.647C396.414 111.687 395.64 107.546 384.954 109.79C382.836 110.235 379.611 112.239 378.172 114.892L378.967 112.035C373.428 115.225 373.266 122.441 373.321 127.549C371.036 123.845 371.105 121.238 371.659 119.523C366.675 127.549 367.033 140.78 375.912 145.095C385.57 149.788 393.243 145.634 396.256 139.585C395.918 142.34 394.7 145.915 393.709 146.308C397.881 144.793 407.769 141.392 410.024 129.585C410.846 134.483 410.641 132.646 410.641 136.32C411.839 134.925 412.173 130.197 412.173 126.932C412.584 127.749 413.481 130.312 413.611 129.381C414.022 127.749 414.259 125.066 414.322 124.075C415.349 107.973 407.204 81.7329 373.539 73.2616C384.842 74.2819 396.761 78.5674 407.969 90.8117C407.764 90.1995 407.969 89.1791 408.175 87.3425C408.885 91.0158 409.912 93.8728 412.49 97.1379L413.312 93.8728C413.586 95.8961 414.425 98.5899 416.395 104.689C423.382 126.32 415.573 147.93 401.804 154.074C403.859 154.074 407.969 152.033 410.024 151.217C395.434 166.93 378.789 166.522 372.829 166.522C378.583 169.175 389.104 168.506 397.826 163.772C369.084 185.012 337.278 169.787 333.374 155.094C332.709 157.235 335.286 164.265 335.839 165.706C324.332 157.339 320.709 142.368 319.948 135.576C318.783 139.789 319.194 141.625 319.811 145.707C304.398 107.137 338.511 73.8738 372.418 81.2203C356.389 83.6692 344.249 96.6103 343.742 113.464C343.742 113.464 345.386 111.219 347.03 109.79C345.386 113.668 344.77 117.545 347.852 121.626Z" fill="#EC602A"/>
<defs>
<linearGradient id="paint0_linear_102_3032" x1="368" y1="0" x2="368" y2="348" gradientUnits="userSpaceOnUse">
<stop stop-color="white"/>
<stop offset="1" stop-color="#F1F1F1"/>
</linearGradient>
</defs>
</svg>
