<svg width="349" height="349" viewBox="0 0 349 349" fill="none" xmlns="http://www.w3.org/2000/svg">
<rect width="348.262" height="348.262" fill="url(#paint0_radial_102_2995)"/>
<path d="M130.758 169.369C136.712 153.44 139.917 149.809 147.245 146.159C144.497 146.614 142.665 147.524 135.796 152.985C144.039 139.787 151.824 132.05 166.478 125.679C164.189 124.314 163.938 124.608 158.693 125.679C170.288 117.773 198.17 118.146 211.646 120.03C206.233 118.603 193.879 105.467 193.879 105.467C193.879 105.467 215.86 118.852 222.687 116.942C217.596 112.811 218.522 104.09 218.522 105.467C222.029 111.086 229.108 115.821 234.255 118.397L232.881 111.571C234.255 114.756 241.62 121.282 243.051 121.991C246.932 123.916 250.02 131.164 254.863 136.146L261.427 140.787C263.611 142.025 265.583 143.116 266.653 144.482C269.245 147.786 264.729 146.159 264.271 151.165C254.645 145.657 242.527 147.05 239.75 149.344C238.979 147.203 237.252 137.967 213.439 142.973C208.719 143.965 201.532 148.434 198.326 154.351L200.098 147.979C187.754 155.092 187.392 171.187 187.514 182.578C182.424 174.316 182.578 168.502 183.812 164.677C172.705 182.578 173.502 212.084 193.289 221.706C214.812 232.174 231.911 222.91 238.626 209.419C237.872 215.564 235.159 223.537 232.949 224.412C242.246 221.034 264.283 213.45 269.308 187.118C271.14 198.041 270.682 193.945 270.682 202.137C273.353 199.028 274.096 188.484 274.096 181.202C275.012 183.022 277.011 188.738 277.302 186.663C278.218 183.022 278.745 177.039 278.886 174.83C281.174 138.921 263.024 80.4011 188.002 61.5089C213.189 63.7843 239.75 73.3417 264.729 100.648C264.271 99.2828 264.729 97.0072 265.187 92.9113C266.769 101.103 269.059 107.475 274.804 114.756L276.636 107.475C277.246 111.987 279.115 117.994 283.505 131.595C299.075 179.837 281.673 228.029 250.99 241.731C255.57 241.731 264.729 237.18 269.308 235.36C236.794 270.403 199.7 269.493 186.42 269.493C199.242 275.409 222.687 273.917 242.125 263.36C178.073 310.728 107.194 276.774 98.4935 244.007C97.0125 248.78 102.754 264.459 103.988 267.672C78.343 249.013 70.2712 215.625 68.5743 200.479C65.9783 209.874 66.8942 213.97 68.2689 223.072C33.9219 137.056 109.943 62.8742 185.504 79.258C149.783 84.7192 122.728 113.58 121.599 151.165C121.599 151.165 125.263 146.159 128.927 142.973C125.263 151.62 123.889 160.267 130.758 169.369Z" fill="#EC602A"/>
<defs>
<radialGradient id="paint0_radial_102_2995" cx="0" cy="0" r="1" gradientUnits="userSpaceOnUse" gradientTransform="translate(174.131) rotate(90) scale(348.262)">
<stop stop-color="white"/>
<stop offset="1" stop-color="#ECECEC"/>
</radialGradient>
</defs>
</svg>
