<svg width="736" height="349" viewBox="0 0 736 349" fill="none" xmlns="http://www.w3.org/2000/svg">
<rect width="736" height="348" transform="translate(0 0.261597)" fill="url(#paint0_linear_102_3020)"/>
<path d="M304.35 194.574V171.073H308.111V178.452C309.192 174.175 312.153 170.602 316.618 170.602C321.507 170.602 323.998 173.752 323.998 179.298V180.896H320.284V179.956C320.284 176.149 318.31 174.128 314.973 174.128C311.119 174.128 308.111 177.747 308.111 182.4V194.574H304.35Z" fill="black"/>
<path d="M333.843 195.138C329.284 195.138 326.605 192.835 326.605 189.169C326.605 183.293 333.655 182.4 338.543 182.024C341.551 181.836 344.419 181.507 344.419 179.674C344.419 175.961 341.646 173.658 337.979 173.658C334.078 173.658 331.446 175.961 330.882 179.815H327.357C327.921 173.94 332.339 170.602 338.026 170.602C343.855 170.602 347.897 174.175 347.897 180.05V191.237H351.14V194.574H344.466V186.913C343.15 191.566 339.295 195.138 333.843 195.138ZM335.441 192.13C340.564 192.13 344.419 188.135 344.419 183.434L344.466 181.507C343.479 182.4 341.598 182.682 339.107 182.87C333.279 183.34 330.412 184.797 330.412 187.994C330.412 190.767 332.433 192.13 335.441 192.13Z" fill="black"/>
<path d="M369.258 204.445C360.892 204.445 355.815 201.671 355.815 197.065C355.815 193.822 358.495 190.908 364.84 190.062C358.119 189.451 353.794 187.994 353.794 184.139C353.794 182.588 355.063 181.319 356.803 181.319C357.555 181.319 358.213 181.46 358.965 181.789C357.931 180.614 357.367 179.345 357.367 178.029C357.367 174.034 360.986 171.167 367.613 170.696V164.962H371.42V170.696C378.048 171.025 382.184 173.893 382.184 178.311C382.184 182.964 377.343 185.878 369.775 185.878C361.174 185.878 360.516 182.306 356.756 182.306C355.533 182.306 354.734 183.152 354.734 184.139C354.734 188.182 361.691 189.263 369.54 189.451C377.249 189.639 382.842 191.472 382.842 196.736C382.842 201.483 377.578 204.445 369.258 204.445ZM369.775 184.938C375.04 184.938 378.471 182.635 378.471 179.157C378.471 175.632 375.04 173.282 369.775 173.282C364.511 173.282 361.127 175.632 361.127 179.157C361.127 182.635 364.417 184.938 369.775 184.938ZM369.305 201.53C375.181 201.53 378.941 199.321 378.941 196.031C378.941 192.459 375.51 190.438 369.305 190.438C363.477 190.438 359.67 192.694 359.67 196.031C359.67 199.321 363.477 201.53 369.305 201.53Z" fill="black"/>
<path d="M398.367 195.044C391.176 195.044 385.817 189.78 385.817 182.823C385.817 175.867 391.176 170.602 398.367 170.602C405.512 170.602 410.917 175.867 410.917 182.823C410.917 189.78 405.512 195.044 398.367 195.044ZM398.367 191.519C403.302 191.519 407.063 187.759 407.063 182.823C407.063 177.888 403.302 174.081 398.367 174.081C393.385 174.081 389.625 177.888 389.625 182.823C389.625 187.759 393.385 191.519 398.367 191.519Z" fill="black"/>
<path d="M417.589 194.574V171.073H421.349V178.452C422.572 173.752 426.003 170.602 430.421 170.602C436.437 170.602 440.057 174.927 440.057 181.789V194.574H436.296V182.306C436.296 177.277 433.429 174.128 428.823 174.128C424.593 174.128 421.349 177.653 421.349 182.306V194.574H417.589Z" fill="black"/>
<path d="M264 195.287V145.079H289.104V150.1H294.125V155.121H299.145V185.245H294.125V190.266H289.104V195.287H264ZM288.849 190.266V185.245H293.87V155.121H288.849V150.1H269.021V190.266H288.849Z" fill="black"/>
<path d="M458.723 153.018V168.08H469.019V173.101H479.061V178.122H483.826V193.184H479.061V198.205H458.468V193.184H453.702V183.143H458.723V193.184H478.806V178.122H468.764V173.101H458.468V168.08H453.702V153.018H458.468V147.997H479.061V153.018H483.826V163.06H478.806V153.018H458.723Z" fill="black"/>
<path d="M503.796 196.99C497.968 196.99 495.383 194.264 495.383 189.281V176.403H489.648V173.018H494.019C495.101 173.018 495.712 172.407 495.712 171.279V167.378H499.143L499.096 173.018H509.201V176.403H499.096V188.482C499.096 191.961 500.788 193.465 504.501 193.465C505.77 193.465 507.415 193.23 509.201 192.807V196.191C507.65 196.614 505.394 196.99 503.796 196.99Z" fill="black"/>
<path d="M521.446 197.084C516.887 197.084 514.208 194.781 514.208 191.115C514.208 185.239 521.258 184.346 526.147 183.97C529.155 183.782 532.022 183.453 532.022 181.62C532.022 177.907 529.249 175.604 525.583 175.604C521.681 175.604 519.049 177.907 518.485 181.761H514.96C515.524 175.886 519.942 172.548 525.63 172.548C531.458 172.548 535.5 176.121 535.5 181.996V193.183H538.744V196.52H532.069V188.858C530.753 193.512 526.899 197.084 521.446 197.084ZM523.045 194.076C528.168 194.076 532.022 190.081 532.022 185.38L532.069 183.453C531.082 184.346 529.202 184.628 526.711 184.816C520.882 185.286 518.015 186.743 518.015 189.939C518.015 192.713 520.036 194.076 523.045 194.076Z" fill="black"/>
<path d="M545.91 196.52V163.148H549.67V184.299H553.196L562.361 173.018H566.45L556.956 184.487L566.732 196.52H562.267L553.102 185.239H549.67V196.52H545.91Z" fill="black"/>
<path d="M581.971 196.99C574.967 196.99 569.609 191.82 569.609 184.863C569.609 177.719 575.014 172.548 582.018 172.548C588.974 172.548 594.286 177.719 594.286 184.769V185.239H573.275C573.51 190.033 577.224 193.606 582.018 193.606C585.543 193.606 588.457 191.82 589.444 189.281H593.44C592.547 193.371 588.128 196.99 581.971 196.99ZM590.714 184.299C590.525 179.505 586.859 175.933 582.018 175.933C577.224 175.933 573.51 179.505 573.275 184.299H590.714Z" fill="black"/>
<path d="M172.852 172.626C175.524 165.484 176.962 163.856 180.25 162.219C179.017 162.423 178.195 162.831 175.113 165.28C178.812 159.362 182.305 155.893 188.881 153.036C187.853 152.423 187.741 152.555 185.388 153.036C190.591 149.491 203.102 149.658 209.149 150.503C206.72 149.863 201.176 143.973 201.176 143.973C201.176 143.973 211.04 149.975 214.104 149.118C211.819 147.266 212.235 143.355 212.235 143.973C213.809 146.492 216.985 148.615 219.295 149.77L218.678 146.709C219.295 148.138 222.6 151.064 223.242 151.382C224.983 152.245 226.369 155.495 228.542 157.729L231.488 159.81C232.468 160.365 233.352 160.854 233.833 161.467C234.996 162.949 232.969 162.219 232.764 164.464C228.444 161.994 223.007 162.618 221.761 163.647C221.414 162.687 220.64 158.546 209.954 160.79C207.836 161.235 204.611 163.239 203.172 165.892L203.967 163.035C198.428 166.225 198.266 173.441 198.321 178.549C196.036 174.845 196.105 172.238 196.659 170.523C191.675 178.549 192.033 191.78 200.912 196.095C210.57 200.788 218.243 196.634 221.256 190.585C220.918 193.34 219.7 196.915 218.709 197.308C222.881 195.793 232.769 192.392 235.024 180.585C235.846 185.483 235.641 183.646 235.641 187.32C236.839 185.925 237.173 181.197 237.173 177.932C237.584 178.749 238.481 181.312 238.611 180.381C239.022 178.749 239.259 176.066 239.322 175.075C240.349 158.973 232.204 132.733 198.539 124.262C209.842 125.282 221.761 129.567 232.969 141.812C232.764 141.2 232.969 140.179 233.175 138.343C233.885 142.016 234.912 144.873 237.49 148.138L238.312 144.873C238.586 146.896 239.425 149.59 241.395 155.689C248.382 177.32 240.573 198.93 226.804 205.074C228.859 205.074 232.969 203.033 235.024 202.217C220.434 217.93 203.789 217.522 197.829 217.522C203.583 220.175 214.104 219.506 222.826 214.772C194.084 236.012 162.278 220.787 158.374 206.094C157.709 208.235 160.286 215.265 160.839 216.706C149.332 208.339 145.709 193.368 144.948 186.576C143.783 190.789 144.194 192.625 144.811 196.707C129.398 158.137 163.511 124.874 197.418 132.22C181.389 134.669 169.249 147.61 168.742 164.464C168.742 164.464 170.386 162.219 172.03 160.79C170.386 164.668 169.77 168.545 172.852 172.626Z" fill="#EC602A"/>
<defs>
<linearGradient id="paint0_linear_102_3020" x1="368" y1="0" x2="368" y2="348" gradientUnits="userSpaceOnUse">
<stop stop-color="white"/>
<stop offset="1" stop-color="#F7F7F7"/>
</linearGradient>
</defs>
</svg>
