<svg width="349" height="349" viewBox="0 0 349 349" fill="none" xmlns="http://www.w3.org/2000/svg">
<rect width="348.262" height="348.262" transform="translate(0.738281)" fill="url(#paint0_radial_102_2997)"/>
<path d="M131.497 169.369C137.45 153.44 140.656 149.809 147.983 146.159C145.235 146.614 143.403 147.524 136.534 152.985C144.777 139.787 152.562 132.05 167.217 125.679C164.927 124.314 164.677 124.608 159.432 125.679C171.027 117.773 198.908 118.146 212.384 120.03C206.971 118.603 194.617 105.467 194.617 105.467C194.617 105.467 216.599 118.852 223.426 116.942C218.335 112.811 219.26 104.09 219.26 105.467C222.768 111.086 229.847 115.821 234.993 118.397L233.619 111.571C234.993 114.756 242.358 121.282 243.789 121.991C247.67 123.916 250.758 131.164 255.601 136.146L262.166 140.787C264.35 142.025 266.321 143.116 267.392 144.482C269.984 147.786 265.467 146.159 265.009 151.165C255.383 145.657 243.265 147.05 240.489 149.344C239.717 147.203 237.99 137.967 214.177 142.973C209.457 143.965 202.27 148.434 199.065 154.351L200.836 147.979C188.492 155.092 188.131 171.187 188.253 182.578C183.162 174.316 183.316 168.502 184.55 164.677C173.443 182.578 174.24 212.084 194.027 221.706C215.551 232.174 232.65 222.91 239.364 209.419C238.611 215.564 235.897 223.537 233.688 224.412C242.984 221.034 265.022 213.45 270.047 187.118C271.879 198.041 271.421 193.945 271.421 202.137C274.091 199.028 274.835 188.484 274.835 181.202C275.751 183.022 277.75 188.738 278.04 186.663C278.956 183.022 279.483 177.039 279.624 174.83C281.912 138.921 263.763 80.4011 188.74 61.5089C213.928 63.7843 240.489 73.3417 265.467 100.648C265.009 99.2828 265.467 97.0072 265.925 92.9113C267.508 101.103 269.797 107.475 275.542 114.756L277.374 107.475C277.984 111.987 279.853 117.994 284.243 131.595C299.813 179.837 282.411 228.029 251.729 241.731C256.308 241.731 265.467 237.18 270.047 235.36C237.532 270.403 200.438 269.493 187.158 269.493C199.981 275.409 223.426 273.917 242.863 263.36C178.812 310.728 107.933 276.774 99.2318 244.007C97.7508 248.78 103.492 264.459 104.726 267.672C79.0813 249.013 71.0095 215.625 69.3126 200.479C66.7167 209.874 67.6326 213.97 69.0072 223.072C34.6603 137.056 110.681 62.8742 186.242 79.258C150.521 84.7192 123.467 113.58 122.338 151.165C122.338 151.165 126.001 146.159 129.665 142.973C126.001 151.62 124.628 160.267 131.497 169.369Z" fill="black"/>
<defs>
<radialGradient id="paint0_radial_102_2997" cx="0" cy="0" r="1" gradientUnits="userSpaceOnUse" gradientTransform="translate(174.131) rotate(90) scale(348.262)">
<stop stop-color="white"/>
<stop offset="1" stop-color="#ECECEC"/>
</radialGradient>
</defs>
</svg>
